<svg version="1.1" preserveAspectRatio="none" xmlns="http://www.w3.org/2000/svg" width="500" height="500" viewBox="0 0 500 500"><rect width="100%" height="100%" fill="#FBFBFB" fill-opacity="1"/><svg viewBox="110.0864 142.8347 417.4703 82" width="333" height="65.40824580814491" x="83.5px" y="217.2959px" xmlns="http://www.w3.org/2000/svg" xmlns:xlink="http://www.w3.org/1999/xlink" preserveAspectRatio="none"><defs></defs><style>.aIptOCySncolors-3 {fill:#EFEFEF;fill-opacity:1;}.aIptOCySncolors-4 {fill:#3E4AB8;fill-opacity:1;}.aIptOCySncolors-5 {fill:#A0A0A0;fill-opacity:1;}.aIptOCySncolors-6 {fill:#F5F7FF;fill-opacity:1;}.aIptOCySncolors-7 {fill:#3E4AB8;fill-opacity:1;}.companyName {fill:#0A0A0A;fill-opacity:1;}.icon1 {fill:#A0A0A0;fill-opacity:1;}.icon2 {fill:#FBFBFB;fill-opacity:1;}.icon3 {fill:#0A0A0A;fill-opacity:1;}.icon3-str {stroke:#0A0A0A;stroke-opacity:1;}.text {fill:#0A0A0A;fill-opacity:1;}</style><g opacity="1" transform="rotate(0 110.0864 142.8347)">
<svg width="53.7396" height="82" x="110.0864" y="142.8347" version="1.1" preserveAspectRatio="none" viewBox="22.917205810546875 8.675500869750977 54.16459655761719 82.64859771728516">
  <g transform="matrix(1 0 0 1 0 0)" class="icon1"><path d="m67.363 91.324c2.5742 0.011719 5.0469-1.0039 6.8711-2.8203s2.8477-4.2852 2.8477-6.8594v-63.289c0-5.3477-4.332-9.6797-9.6758-9.6797h-34.77c-2.5742-0.011719-5.0469 1.0039-6.8711 2.8203s-2.8477 4.2852-2.8477 6.8594v63.289c0 2.5664 1.0195 5.0273 2.832 6.8438 1.8164 1.8164 4.2773 2.8359 6.8438 2.8359zm-42.844-9.6797v-63.289c0-4.4844 3.6328-8.1172 8.1172-8.1172h34.727c4.4844 0 8.1172 3.6328 8.1172 8.1172v63.289c0 2.1523-0.85547 4.2188-2.3789 5.7383-1.5195 1.5234-3.5859 2.3789-5.7383 2.3789h-34.727c-2.1523 0-4.2188-0.85547-5.7383-2.3789-1.5234-1.5195-2.3789-3.5859-2.3789-5.7383zm11.168-56.25h28.625c2.2422 0 4.0625-1.8164 4.0625-4.0625 0-2.2422-1.8203-4.0625-4.0625-4.0625h-28.625c-2.2422 0-4.0625 1.8203-4.0625 4.0625 0 2.2461 1.8203 4.0625 4.0625 4.0625zm0-6.5625h28.625c1.3789 0 2.5 1.1211 2.5 2.5 0 1.3828-1.1211 2.5-2.5 2.5h-28.625c-1.3789 0-2.5-1.1172-2.5-2.5 0-1.3789 1.1211-2.5 2.5-2.5zm-2.3555 64.875h33.586c0.42969-0.003906 0.77344-0.35156 0.78125-0.78125v-33.539c0-0.43359-0.35156-0.78125-0.78125-0.78125h-33.586c-0.42969 0-0.78125 0.34766-0.78125 0.78125v33.543-0.003907c0.007813 0.42969 0.35156 0.77734 0.78125 0.78125zm32.805-12.75h-9.625v-9.6133h9.625zm-11.188 0h-9.6172v-9.6133h9.6133zm-11.199 0h-9.6055v-9.6133h9.6055zm-9.625 1.5625h9.625v9.625h-9.6055zm11.188 0h9.6133v9.625h-9.5938zm20.832 9.625h-9.6328v-9.625h9.625zm0-22.363h-9.6328v-9.6133h9.625zm-11.188 0h-9.625v-9.6133h9.6133zm-20.832-9.6133h9.625v9.6133h-9.6055zm-0.54297-8.9883v-0.003907c0 0.43359 0.35156 0.78125 0.78125 0.78125h12.25c0.21094 0.003907 0.41016-0.078125 0.55859-0.22266 0.14453-0.14844 0.22656-0.34766 0.22266-0.55859 0-2.8047-1.7031-5.3281-4.3008-6.3828 1.0938-1.0625 1.4336-2.6797 0.86328-4.0898-0.57422-1.4102-1.9453-2.3359-3.4688-2.3359-1.5195 0-2.8906 0.92578-3.4648 2.3359-0.57031 1.4102-0.23047 3.0273 0.86328 4.0898-2.5938 1.0586-4.2891 3.582-4.2812 6.3828zm4.7305-9.0625v-0.003907c0-0.875 0.52734-1.6641 1.3359-2 0.8125-0.33594 1.7422-0.15234 2.3633 0.46875 0.62109 0.62109 0.80469 1.5508 0.46875 2.3633-0.33594 0.80859-1.125 1.3359-2 1.3359-1.1875-0.015625-2.1406-0.98047-2.1484-2.168zm2.168 3.7305v-0.003906c2.668-0.03125 4.9531 1.9102 5.3516 4.5508h-10.602c0.38672-2.6133 2.6289-4.5469 5.2695-4.5508zm25.895-4.168v-0.003907c-0.003906 0.42969-0.35156 0.77734-0.78125 0.78125h-14.082c-0.43359 0-0.78125-0.34766-0.78125-0.78125 0-0.42969 0.34766-0.78125 0.78125-0.78125h14.113c0.21094 0.003907 0.41406 0.09375 0.5625 0.25 0.14453 0.15234 0.21875 0.36328 0.20703 0.57422zm-15.625 4.332c0.003906-0.42969 0.35156-0.77734 0.78125-0.78125h10c0.42969 0 0.78125 0.34766 0.78125 0.78125 0 0.42969-0.35156 0.78125-0.78125 0.78125h-10c-0.42188 0.003906-0.77344-0.32031-0.80078-0.74219zm0 4.332c0.003906-0.42969 0.35156-0.77734 0.78125-0.78125h14.094c0.42969 0 0.78125 0.35156 0.78125 0.78125s-0.35156 0.78125-0.78125 0.78125h-14.113c-0.41797 0-0.76172-0.32422-0.78125-0.73828z"></path></g>
</svg>
</g><g opacity="1" transform="rotate(0 183.826 204.8347)">
<svg width="176.7111" height="20" x="183.826" y="204.8347" version="1.1" preserveAspectRatio="none" viewBox="3.76 -30.88 341.48 38.64">
  <g transform="matrix(1 0 0 1 0 0)" class="text"><path id="id-6izo4zJp15" d="M23.48-28L28.64-28L28.64 0L24.36 0L8.92-18.96L8.92 0L3.76 0L3.76-28L8.04-28L23.48-9.04L23.48-28Z M56.96-10.56Q56.96-10.04 56.88-9.08L56.88-9.08L40.12-9.08Q40.56-6.72 42.42-5.34Q44.28-3.96 47.04-3.96L47.04-3.96Q50.56-3.96 52.84-6.28L52.84-6.28L55.52-3.20Q54.08-1.48 51.88-0.60Q49.68 0.28 46.92 0.28L46.92 0.28Q43.40 0.28 40.72-1.12Q38.04-2.52 36.58-5.02Q35.12-7.52 35.12-10.68L35.12-10.68Q35.12-13.80 36.54-16.30Q37.96-18.80 40.48-20.20Q43-21.60 46.16-21.60L46.16-21.60Q49.28-21.60 51.74-20.22Q54.20-18.84 55.58-16.34Q56.96-13.84 56.96-10.56L56.96-10.56ZM46.16-17.60Q43.76-17.60 42.10-16.18Q40.44-14.76 40.08-12.40L40.08-12.40L52.20-12.40Q51.88-14.72 50.24-16.16Q48.60-17.60 46.16-17.60L46.16-17.60Z M91.44-21.36L95.88-21.36L88 0L83.20 0L77.68-14.72L72.08 0L67.28 0L59.44-21.36L64.16-21.36L69.80-5.60L75.68-21.36L79.88-21.36L85.64-5.52L91.44-21.36Z M106.84 0.28Q104.24 0.28 101.76-0.40Q99.28-1.08 97.80-2.12L97.80-2.12L99.72-5.92Q101.16-4.96 103.18-4.38Q105.20-3.80 107.16-3.80L107.16-3.80Q111.64-3.80 111.64-6.16L111.64-6.16Q111.64-7.28 110.50-7.72Q109.36-8.16 106.84-8.56L106.84-8.56Q104.20-8.96 102.54-9.48Q100.88-10 99.66-11.30Q98.44-12.60 98.44-14.92L98.44-14.92Q98.44-17.96 100.98-19.78Q103.52-21.60 107.84-21.60L107.84-21.60Q110.04-21.60 112.24-21.10Q114.44-20.60 115.84-19.76L115.84-19.76L113.92-15.96Q111.20-17.56 107.80-17.56L107.80-17.56Q105.60-17.56 104.46-16.90Q103.32-16.24 103.32-15.16L103.32-15.16Q103.32-13.96 104.54-13.46Q105.76-12.96 108.32-12.52L108.32-12.52Q110.88-12.12 112.52-11.60Q114.16-11.08 115.34-9.84Q116.52-8.60 116.52-6.32L116.52-6.32Q116.52-3.32 113.92-1.52Q111.32 0.28 106.84 0.28L106.84 0.28Z M140.88 0.28Q138.28 0.28 135.80-0.40Q133.32-1.08 131.84-2.12L131.84-2.12L133.76-5.92Q135.20-4.96 137.22-4.38Q139.24-3.80 141.20-3.80L141.20-3.80Q145.68-3.80 145.68-6.16L145.68-6.16Q145.68-7.28 144.54-7.72Q143.40-8.16 140.88-8.56L140.88-8.56Q138.24-8.96 136.58-9.48Q134.92-10 133.70-11.30Q132.48-12.60 132.48-14.92L132.48-14.92Q132.48-17.96 135.02-19.78Q137.56-21.60 141.88-21.60L141.88-21.60Q144.08-21.60 146.28-21.10Q148.48-20.60 149.88-19.76L149.88-19.76L147.96-15.96Q145.24-17.56 141.84-17.56L141.84-17.56Q139.64-17.56 138.50-16.90Q137.36-16.24 137.36-15.16L137.36-15.16Q137.36-13.96 138.58-13.46Q139.80-12.96 142.36-12.52L142.36-12.52Q144.92-12.12 146.56-11.60Q148.20-11.08 149.38-9.84Q150.56-8.60 150.56-6.32L150.56-6.32Q150.56-3.32 147.96-1.52Q145.36 0.28 140.88 0.28L140.88 0.28Z M156.08 0L156.08-21.36L161.08-21.36L161.08 0L156.08 0ZM158.60-24.88Q157.24-24.88 156.32-25.74Q155.40-26.60 155.40-27.88L155.40-27.88Q155.40-29.16 156.32-30.02Q157.24-30.88 158.60-30.88L158.60-30.88Q159.96-30.88 160.88-30.06Q161.80-29.24 161.80-28L161.80-28Q161.80-26.68 160.90-25.78Q160.00-24.88 158.60-24.88L158.60-24.88Z M195.80-21.60Q199.84-21.60 202.20-19.26Q204.56-16.92 204.56-12.24L204.56-12.24L204.56 0L199.56 0L199.56-11.60Q199.56-14.40 198.32-15.82Q197.08-17.24 194.76-17.24L194.76-17.24Q192.24-17.24 190.72-15.58Q189.20-13.92 189.20-10.84L189.20-10.84L189.20 0L184.20 0L184.20-11.60Q184.20-14.40 182.96-15.82Q181.72-17.24 179.40-17.24L179.40-17.24Q176.84-17.24 175.34-15.60Q173.84-13.96 173.84-10.84L173.84-10.84L173.84 0L168.84 0L168.84-21.36L173.60-21.36L173.60-18.64Q174.80-20.08 176.60-20.84Q178.40-21.60 180.60-21.60L180.60-21.60Q183.00-21.60 184.86-20.70Q186.72-19.80 187.80-18.04L187.80-18.04Q189.12-19.72 191.20-20.66Q193.28-21.60 195.80-21.60L195.80-21.60Z M224.00-21.60Q227.12-21.60 229.58-20.24Q232.04-18.88 233.44-16.40Q234.84-13.92 234.84-10.68L234.84-10.68Q234.84-7.44 233.44-4.94Q232.04-2.44 229.58-1.08Q227.12 0.28 224.00 0.28L224.00 0.28Q219.68 0.28 217.16-2.60L217.16-2.60L217.16 7.76L212.16 7.76L212.16-21.36L216.92-21.36L216.92-18.56Q218.16-20.08 219.98-20.84Q221.80-21.60 224.00-21.60L224.00-21.60ZM223.44-4Q226.20-4 227.98-5.84Q229.76-7.68 229.76-10.68L229.76-10.68Q229.76-13.68 227.98-15.52Q226.20-17.36 223.44-17.36L223.44-17.36Q221.64-17.36 220.20-16.54Q218.76-15.72 217.92-14.20Q217.08-12.68 217.08-10.68L217.08-10.68Q217.08-8.68 217.92-7.16Q218.76-5.64 220.20-4.82Q221.64-4 223.44-4L223.44-4Z M240.80 0L240.80-29.68L245.80-29.68L245.80 0L240.80 0Z M253.56 0L253.56-21.36L258.56-21.36L258.56 0L253.56 0ZM256.08-24.88Q254.72-24.88 253.80-25.74Q252.88-26.60 252.88-27.88L252.88-27.88Q252.88-29.16 253.80-30.02Q254.72-30.88 256.08-30.88L256.08-30.88Q257.44-30.88 258.36-30.06Q259.28-29.24 259.28-28L259.28-28Q259.28-26.68 258.38-25.78Q257.48-24.88 256.08-24.88L256.08-24.88Z M275.00-25.92Q271.84-25.92 271.84-22.48L271.84-22.48L271.84-21.20L277.72-21.20L277.72-17.20L272.00-17.20L272.00 0L267.00 0L267.00-17.20L263.48-17.20L263.48-21.20L267.00-21.20L267.00-22.56Q267.00-26 269.00-27.98Q271.00-29.96 274.64-29.96L274.64-29.96Q277.52-29.96 279.16-28.80L279.16-28.80L277.76-25.04Q276.48-25.92 275.00-25.92L275.00-25.92Z M285.48 0L285.48-21.36L290.48-21.36L290.48 0L285.48 0ZM288.00-24.88Q286.64-24.88 285.72-25.74Q284.80-26.60 284.80-27.88L284.80-27.88Q284.80-29.16 285.72-30.02Q286.64-30.88 288.00-30.88L288.00-30.88Q289.36-30.88 290.28-30.06Q291.20-29.24 291.20-28L291.20-28Q291.20-26.68 290.30-25.78Q289.40-24.88 288.00-24.88L288.00-24.88Z M318.32-10.56Q318.32-10.04 318.24-9.08L318.24-9.08L301.48-9.08Q301.92-6.72 303.78-5.34Q305.64-3.96 308.40-3.96L308.40-3.96Q311.92-3.96 314.20-6.28L314.20-6.28L316.88-3.20Q315.44-1.48 313.24-0.60Q311.04 0.28 308.28 0.28L308.28 0.28Q304.76 0.28 302.08-1.12Q299.40-2.52 297.94-5.02Q296.48-7.52 296.48-10.68L296.48-10.68Q296.48-13.80 297.90-16.30Q299.32-18.80 301.84-20.20Q304.36-21.60 307.52-21.60L307.52-21.60Q310.64-21.60 313.10-20.22Q315.56-18.84 316.94-16.34Q318.32-13.84 318.32-10.56L318.32-10.56ZM307.52-17.60Q305.12-17.60 303.46-16.18Q301.80-14.76 301.44-12.40L301.44-12.40L313.56-12.40Q313.24-14.72 311.60-16.16Q309.96-17.60 307.52-17.60L307.52-17.60Z M340.24-29.68L345.24-29.68L345.24 0L340.44 0L340.44-2.76Q339.20-1.24 337.38-0.48Q335.56 0.28 333.36 0.28L333.36 0.28Q330.28 0.28 327.82-1.08Q325.36-2.44 323.96-4.94Q322.56-7.44 322.56-10.68L322.56-10.68Q322.56-13.92 323.96-16.40Q325.36-18.88 327.82-20.24Q330.28-21.60 333.36-21.60L333.36-21.60Q335.48-21.60 337.24-20.88Q339.00-20.16 340.24-18.72L340.24-18.72L340.24-29.68ZM333.96-4Q335.76-4 337.20-4.82Q338.64-5.64 339.48-7.16Q340.32-8.68 340.32-10.68L340.32-10.68Q340.32-12.68 339.48-14.20Q338.64-15.72 337.20-16.54Q335.76-17.36 333.96-17.36L333.96-17.36Q332.16-17.36 330.72-16.54Q329.28-15.72 328.44-14.20Q327.60-12.68 327.60-10.68L327.60-10.68Q327.60-8.68 328.44-7.16Q329.28-5.64 330.72-4.82Q332.16-4 333.96-4L333.96-4Z"/></g>
</svg>
</g><g opacity="1" transform="rotate(0 183.826 142.8347)">
<svg width="343.7307" height="50" x="183.826" y="142.8347" version="1.1" preserveAspectRatio="none" viewBox="1.36 -28.56 233.43999999999997 33.96">
  <g transform="matrix(1 0 0 1 0 0)" class="companyName"><path id="id-D6z1nYkh8" d="M32.48-14Q32.48-10.48 31.02-7.54Q29.56-4.60 26.94-2.62Q24.32-0.64 20.88 0.12L20.88 0.12L20.88 5.40L12.96 5.40L12.96 0.12Q9.52-0.64 6.90-2.62Q4.28-4.60 2.82-7.54Q1.36-10.48 1.36-14L1.36-14Q1.36-18.16 3.38-21.48Q5.40-24.80 8.94-26.68Q12.48-28.56 16.92-28.56L16.92-28.56Q21.36-28.56 24.90-26.68Q28.44-24.80 30.46-21.48Q32.48-18.16 32.48-14L32.48-14ZM16.92-6Q19.04-6 20.76-7Q22.48-8 23.48-9.82Q24.48-11.64 24.48-14L24.48-14Q24.48-16.36 23.48-18.18Q22.48-20 20.76-21Q19.04-22 16.92-22L16.92-22Q14.80-22 13.08-21Q11.36-20 10.36-18.18Q9.36-16.36 9.36-14L9.36-14Q9.36-11.64 10.36-9.82Q11.36-8 13.08-7Q14.80-6 16.92-6L16.92-6Z M54.76-28L62.68-28L62.68 0L55 0L55-3.20Q53.64-1.36 51.56-0.40Q49.48 0.56 46.88 0.56L46.88 0.56Q41.92 0.56 39.16-2.62Q36.40-5.80 36.40-11.68L36.40-11.68L36.40-28L44.32-28L44.32-11.92Q44.32-8.96 45.66-7.48Q47-6 49.32-6L49.32-6Q51.76-6 53.26-7.60Q54.76-9.20 54.76-12.32L54.76-12.32L54.76-28Z M83.96-21.88L79.44-21.88L79.44-6.12L83.96-6.12L83.96 0L66.96 0L66.96-6.12L71.52-6.12L71.52-21.88L66.96-21.88L66.96-28L83.96-28L83.96-21.88Z M107.04 0L99.04-10.16L96.08-7L96.08 0L88.24 0L88.24-28L96.08-28L96.08-16.36L106.92-28L115.64-28L104.20-15.60L116.24 0L107.04 0Z M135.64 0L130.56-7.44L126.24-7.44L126.24 0L118.32 0L118.32-28L131.12-28Q134.92-28 137.72-26.74Q140.52-25.48 142.04-23.14Q143.56-20.80 143.56-17.64L143.56-17.64Q143.56-14.60 142.14-12.34Q140.72-10.08 138.08-8.80L138.08-8.80L144.12 0L135.64 0ZM135.56-17.64Q135.56-19.60 134.32-20.68Q133.08-21.76 130.64-21.76L130.64-21.76L126.24-21.76L126.24-13.56L130.64-13.56Q133.08-13.56 134.32-14.62Q135.56-15.68 135.56-17.64L135.56-17.64Z M169.60-7.96L172-2.12Q169.84-0.88 166.76-0.16Q163.68 0.56 160.36 0.56L160.36 0.56Q155.88 0.56 152.74-0.52Q149.60-1.60 148.02-3.52Q146.44-5.44 146.44-7.96L146.44-7.96Q146.44-10.16 147.64-11.84Q148.84-13.52 150.96-14.44L150.96-14.44Q149.32-15.28 148.46-16.78Q147.60-18.28 147.60-20.08L147.60-20.08Q147.60-22.40 149.06-24.32Q150.52-26.24 153.52-27.40Q156.52-28.56 160.92-28.56L160.92-28.56Q163.68-28.56 166.36-28.04Q169.04-27.52 171.08-26.64L171.08-26.64L168.92-20.72Q165.20-22.36 161.24-22.36L161.24-22.36Q158.40-22.36 157-21.62Q155.60-20.88 155.60-19.56L155.60-19.56Q155.60-17.16 159.08-17.16L159.08-17.16L167-17.16L167-11.12L158.56-11.12Q156.52-11.12 155.48-10.46Q154.44-9.80 154.44-8.52L154.44-8.52Q154.44-7.16 155.96-6.40Q157.48-5.64 160.68-5.64L160.68-5.64Q162.96-5.64 165.38-6.26Q167.80-6.88 169.60-7.96L169.60-7.96Z M187.24-28.56Q191.20-28.56 194.22-26.98Q197.24-25.40 198.90-22.38Q200.56-19.36 200.56-15.12L200.56-15.12L200.56 0L192.64 0L192.64-6.20L181.72-6.20L181.72 0L173.92 0L173.92-15.12Q173.92-19.36 175.58-22.38Q177.24-25.40 180.26-26.98Q183.28-28.56 187.24-28.56L187.24-28.56ZM181.72-12.32L192.64-12.32L192.64-15.80Q192.64-18.88 191.16-20.44Q189.68-22 187.20-22L187.20-22Q184.68-22 183.20-20.44Q181.72-18.88 181.72-15.80L181.72-15.80L181.72-12.32Z M205.92 0L205.92-28L219.16-28Q223.76-28 227.32-26.28Q230.88-24.56 232.84-21.40Q234.80-18.24 234.80-14L234.80-14Q234.80-9.76 232.84-6.60Q230.88-3.44 227.32-1.72Q223.76 0 219.16 0L219.16 0L205.92 0ZM213.84-6.32L218.84-6.32Q222.44-6.32 224.62-8.36Q226.80-10.40 226.80-14L226.80-14Q226.80-17.60 224.62-19.64Q222.44-21.68 218.84-21.68L218.84-21.68L213.84-21.68L213.84-6.32Z"/></g>
</svg>
</g></svg></svg>